<svg height="512pt" viewBox="0 0 512 512" width="512pt" xmlns="http://www.w3.org/2000/svg"><path d="M512 96v384c0 17.68-14.32 32-32 32H32c-17.68 0-32-14.32-32-32V96zm0 0" fill="#e4edfb"/><path d="M0 0h512v128H0zm0 0" fill="#77959e"/><path d="M64 48h32v32H64zm64 0h32v32h-32zm0 0" fill="#fff"/><path d="M432 80H208c-8.832 0-16-7.168-16-16s7.168-16 16-16h224c8.832 0 16 7.168 16 16s-7.168 16-16 16zm0 0" fill="#62808c"/><path d="M64 265.375V304H32v-38.625H0V384h32v-48h32v48h32V265.375zm160 0h-96v32h32V384h32v-86.625h32zM384 384h-32v-80l-32 32-32-32v80h-32V265.375h38.625L320 290.754l25.375-25.379H384zm128 0h-96V265.375h32V352h64zm0 0" fill="#9575cd"/></svg>