<svg height="512pt" viewBox="0 0 512 512" width="512pt" xmlns="http://www.w3.org/2000/svg"><path d="M0 96v384c0 17.68 14.32 32 32 32h448c17.68 0 32-14.32 32-32V96zm0 0" fill="#e4edfb"/><path d="M0 0h512v128H0zm0 0" fill="#77959e"/><path d="M64 48h32v32H64zm64 0h32v32h-32zm0 0" fill="#fff"/><path d="M432 80H208c-8.832 0-16-7.168-16-16s7.168-16 16-16h224c8.832 0 16 7.168 16 16s-7.168 16-16 16zm0 0" fill="#62808c"/><path d="M112 400c-6.238-6.238-6.238-16.383 0-22.625L169.375 320 112 262.625c-6.238-6.242-6.238-16.387 0-22.625s16.383-6.238 22.625 0l80 80-80 80c-6.242 6.238-16.387 6.238-22.625 0zm288 16H240c-8.832 0-16-7.168-16-16s7.168-16 16-16h160c8.832 0 16 7.168 16 16s-7.168 16-16 16zm0 0" fill="#48c8ef"/></svg>