<svg height="448pt" viewBox="-20 0 448 448" width="448pt" xmlns="http://www.w3.org/2000/svg"><path d="M304 232V48H32v184a8 8 0 0 0 8 8h256a8 8 0 0 0 8-8zm-170.344-77.656l-11.312 11.312-24-24a8.004 8.004 0 0 1 0-11.312l24-24 11.312 11.312L115.312 136zm25.84 16.465l-14.992-5.602 24-64 14.992 5.602zm70.16-29.153l-24 24-11.312-11.312L212.688 136l-18.344-18.344 11.312-11.312 24 24a8.004 8.004 0 0 1 0 11.312zM320 160h8v16h-8zM296 0H40a8 8 0 0 0-8 8v24h272V8a8 8 0 0 0-8-8zM64 24H48V8h16zm32 0H80V8h16zm32 0h-16V8h16zm0 0"/><path d="M176 320h-16v-8c0-13.254 10.746-24 24-24h184c13.254 0 24-10.746 24-24v-64c0-13.254-10.746-24-24-24h-24v-16h24c22.082.027 39.973 17.918 40 40v64c-.027 22.082-17.918 39.973-40 40H184a8 8 0 0 0-8 8zm160 16H0v112h336zm-64 16h16v16h-16zm-32 0h16v16h-16zm0 32h16v16h-16zm-32-32h16v16h-16zm0 32h16v16h-16zm-32-32h16v16h-16zm0 32h16v16h-16zm-32-32h16v16h-16zm0 32h16v16h-16zm-32-32h16v16h-16zm0 32h16v16h-16zm-32-32h16v16H80zm0 32h16v16H80zm-32-32h16v16H48zm0 32h16v16H48zm-16 48H16v-16h16zm0-32H16v-16h16zm0-32H16v-16h16zm240 64H48v-16h224zm0-48h16v16h-16zm48 48h-32v-16h32zm0-32h-16v-16h16zm0-32h-16v-16h16zm0 0"/></svg>