<svg xmlns="http://www.w3.org/2000/svg" viewBox="0 0 286.054 286.054"><path d="M286.054 143.027C286.054 64.031 222.014 0 143.027 0S0 64.031 0 143.027s64.04 143.027 143.027 143.027 143.027-64.04 143.027-143.027zm-26.818 0c0 64.192-52.026 116.2-116.209 116.2s-116.209-52.008-116.209-116.2c0-64.183 52.026-116.209 116.209-116.209s116.209 52.035 116.209 116.209zm-55.709-5.39L151.85 86.54c-4.854-7.884-12.792-7.884-17.637 0l-51.686 51.096c-4.845 7.875-.876 14.338 8.823 14.338h24.86v44.696a8.937 8.937 0 0 0 8.939 8.939h35.757a8.931 8.931 0 0 0 8.939-8.939v-44.696h24.86c9.707-.008 13.676-6.462 8.822-14.337z" fill="#3db39e"/></svg>