<svg height="512pt" viewBox="0 0 512 512" width="512pt" xmlns="http://www.w3.org/2000/svg"><path d="M512 96v384c0 17.68-14.32 32-32 32H32c-17.68 0-32-14.32-32-32V96zm0 0" fill="#e4edfb"/><path d="M0 0h512v128H0zm0 0" fill="#77959e"/><path d="M64 48h32v32H64zm64 0h32v32h-32zm0 0" fill="#fff"/><path d="M432 80H208c-8.832 0-16-7.168-16-16s7.168-16 16-16h224c8.832 0 16 7.168 16 16s-7.168 16-16 16zm0 0" fill="#62808c"/><path d="M128 400c-26.465 0-48-21.535-48-48v-64c0-26.465 21.535-48 48-48s48 21.535 48 48v16h-32v-16c0-8.816-7.168-16-16-16s-16 7.184-16 16v64c0 8.816 7.168 16 16 16s16-7.184 16-16v-16h32v16c0 26.465-21.535 48-48 48zm128 0c-26.465 0-48-21.535-48-48h32c0 8.816 7.168 16 16 16s16-7.184 16-16-7.168-16-16-16c-26.465 0-48-21.535-48-48s21.535-48 48-48 48 21.535 48 48h-32c0-8.816-7.168-16-16-16s-16 7.184-16 16 7.168 16 16 16c26.465 0 48 21.535 48 48s-21.535 48-48 48zm128 0c-26.465 0-48-21.535-48-48h32c0 8.816 7.168 16 16 16s16-7.184 16-16-7.168-16-16-16c-26.465 0-48-21.535-48-48s21.535-48 48-48 48 21.535 48 48h-32c0-8.816-7.168-16-16-16s-16 7.184-16 16 7.168 16 16 16c26.465 0 48 21.535 48 48s-21.535 48-48 48zm0 0" fill="#9575cd"/></svg>